ffmpeg started on 2025-05-05 at 10:39:12
Report written to "D:\Convert\FFMetrics\reports\ssim_report-6.txt"
Log level: 32
Command line:
ffmpeg -hide_banner -nostdin -i "G:\\\xc0\xed\xe8\xec\xe5\\\xce\xed\xe3\xee\xe8\xed\xe3\xe8\\!_35_\xcb\xe5\xf2\xee_2024\\JamClub-1\\\xcb\xfe\xe4\xe8 \xef\xee\xe4\xe7\xe5\xec\xe5\xeb\xfc\xff\\JamClub_Dungeon_no_Naka_no_Hito_09_1080p_HEVC.mkv" -i "G:\\\xc0\xed\xe8\xec\xe5\\\xce\xed\xe3\xee\xe8\xed\xe3\xe8\\!_35_\xcb\xe5\xf2\xee_2024\\JamClub-1\\\xcb\xfe\xe4\xe8 \xef\xee\xe4\xe7\xe5\xec\xe5\xeb\xfc\xff\\JamClub_Dungeon_no_Naka_no_Hito_09_1080p.mp4" -lavfi "[0:v]settb=AVTB,setpts=PTS-STARTPTS,format=pix_fmts=yuv420p10,fps=24000/1001,scale=1920:1080:flags=bicubic[main];[1:v]settb=AVTB,setpts=PTS-STARTPTS,format=pix_fmts=yuv420p,fps=24000/1001,scale=1920:1080:flags=bicubic[ref];[main][ref]ssim=eof_action=endall:stats_file='D\\:/Convert/FFMetrics/logs/ssim_logfile-6.txt'" -f null -
Input #0, matroska,webm, from 'G:\Аниме\Онгоинги\!_35_Лето_2024\JamClub-1\Люди подземелья\JamClub_Dungeon_no_Naka_no_Hito_09_1080p_HEVC.mkv':
  Metadata:
    COMPATIBLE_BRANDS: isomiso2avc1mp41
    MAJOR_BRAND     : isom
    MINOR_VERSION   : 512
    ENCODER         : Lavf61.7.100
  Duration: 00:24:36.74, start: -0.021000, bitrate: 1244 kb/s
  Stream #0:0: Video: hevc (Main 10), yuv420p10le(tv, bt709, progressive), 1920x1080 [SAR 1:1 DAR 16:9], 23.98 fps, 23.98 tbr, 1k tbn (default)
      Metadata:
        HANDLER_NAME    : VideoHandler
        VENDOR_ID       : [0][0][0][0]
        ENCODER         : Lavc61.19.100 libx265
        BPS             : 1046845
        DURATION        : 00:24:36.599708333
        NUMBER_OF_FRAMES: 35403
        NUMBER_OF_BYTES : 193221289
        _STATISTICS_WRITING_APP: mkvpropedit v66.0.0 ('Josie') 64-bit
        _STATISTICS_WRITING_DATE_UTC: 2025-05-04 14:23:50
        _STATISTICS_TAGS: BPS DURATION NUMBER_OF_FRAMES NUMBER_OF_BYTES
  Stream #0:1(eng): Audio: aac (LC), 48000 Hz, stereo, fltp (default)
      Metadata:
        HANDLER_NAME    : SoundHandler
        VENDOR_ID       : [0][0][0][0]
        ENCODER         : Lavc61.19.100 aac
        BPS             : 193481
        DURATION        : 00:24:36.717000000
        NUMBER_OF_FRAMES: 69222
        NUMBER_OF_BYTES : 35714716
        _STATISTICS_WRITING_APP: mkvpropedit v66.0.0 ('Josie') 64-bit
        _STATISTICS_WRITING_DATE_UTC: 2025-05-04 14:23:50
        _STATISTICS_TAGS: BPS DURATION NUMBER_OF_FRAMES NUMBER_OF_BYTES
Input #1, mov,mp4,m4a,3gp,3g2,mj2, from 'G:\Аниме\Онгоинги\!_35_Лето_2024\JamClub-1\Люди подземелья\JamClub_Dungeon_no_Naka_no_Hito_09_1080p.mp4':
  Metadata:
    major_brand     : isom
    minor_version   : 512
    compatible_brands: isomiso2avc1mp41
    encoder         : Lavf60.16.100
  Duration: 00:24:36.72, start: 0.000000, bitrate: 4489 kb/s
  Stream #1:0[0x1](und): Video: h264 (High) (avc1 / 0x31637661), yuv420p(tv, bt709, progressive), 1920x1080 [SAR 1:1 DAR 16:9], 4291 kb/s, 23.98 fps, 23.98 tbr, 90k tbn (default)
      Metadata:
        handler_name    : VideoHandler
        vendor_id       : [0][0][0][0]
  Stream #1:1[0x2](eng): Audio: aac (LC) (mp4a / 0x6134706D), 48000 Hz, stereo, fltp, 191 kb/s (default)
      Metadata:
        handler_name    : SoundHandler
        vendor_id       : [0][0][0][0]
Stream mapping:
  Stream #0:0 (hevc) -> settb:default
  Stream #1:0 (h264) -> settb:default
  ssim:default -> Stream #0:0 (wrapped_avframe)
  Stream #0:1 -> #0:1 (aac (native) -> pcm_s16le (native))
Output #0, null, to 'pipe:':
  Metadata:
    COMPATIBLE_BRANDS: isomiso2avc1mp41
    MAJOR_BRAND     : isom
    MINOR_VERSION   : 512
    encoder         : Lavf61.7.100
  Stream #0:0: Video: wrapped_avframe, yuv420p10le(tv, bt709, progressive), 1920x1080 [SAR 1:1 DAR 16:9], q=2-31, 200 kb/s, 23.98 fps, 23.98 tbn
      Metadata:
        encoder         : Lavc61.19.100 wrapped_avframe
  Stream #0:1(eng): Audio: pcm_s16le, 48000 Hz, stereo, s16, 1536 kb/s (default)
      Metadata:
        HANDLER_NAME    : SoundHandler
        VENDOR_ID       : [0][0][0][0]
        _STATISTICS_TAGS: BPS DURATION NUMBER_OF_FRAMES NUMBER_OF_BYTES
        BPS             : 193481
        DURATION        : 00:24:36.717000000
        NUMBER_OF_FRAMES: 69222
        NUMBER_OF_BYTES : 35714716
        _STATISTICS_WRITING_APP: mkvpropedit v66.0.0 ('Josie') 64-bit
        _STATISTICS_WRITING_DATE_UTC: 2025-05-04 14:23:50
        encoder         : Lavc61.19.100 pcm_s16le
frame=  118 fps=0.0 q=-0.0 size=N/A time=00:00:04.92 bitrate=N/A speed=9.59x    frame=  273 fps=268 q=-0.0 size=N/A time=00:00:11.38 bitrate=N/A speed=11.2x    frame=  477 fps=309 q=-0.0 size=N/A time=00:00:19.89 bitrate=N/A speed=12.9x    frame=  717 fps=347 q=-0.0 size=N/A time=00:00:29.90 bitrate=N/A speed=14.5x    frame=  941 fps=364 q=-0.0 size=N/A time=00:00:39.24 bitrate=N/A speed=15.2x    frame= 1146 fps=370 q=-0.0 size=N/A time=00:00:47.79 bitrate=N/A speed=15.4x    frame= 1347 fps=372 q=-0.0 size=N/A time=00:00:56.18 bitrate=N/A speed=15.5x    frame= 1580 fps=383 q=-0.0 size=N/A time=00:01:05.89 bitrate=N/A speed=  16x    frame= 1855 fps=399 q=-0.0 size=N/A time=00:01:17.36 bitrate=N/A speed=16.6x    frame= 2124 fps=411 q=-0.0 size=N/A time=00:01:28.58 bitrate=N/A speed=17.1x    frame= 2350 fps=414 q=-0.0 size=N/A time=00:01:38.01 bitrate=N/A speed=17.2x    frame= 2561 fps=413 q=-0.0 size=N/A time=00:01:46.81 bitrate=N/A speed=17.2x    frame= 2733 fps=407 q=-0.0 size=N/A time=00:01:53.98 bitrate=N/A speed=  17x    frame= 2976 fps=411 q=-0.0 size=N/A time=00:02:04.12 bitrate=N/A speed=17.2x    frame= 3176 fps=410 q=-0.0 size=N/A time=00:02:12.46 bitrate=N/A speed=17.1x    frame= 3397 fps=411 q=-0.0 size=N/A time=00:02:21.68 bitrate=N/A speed=17.1x    frame= 3586 fps=409 q=-0.0 size=N/A time=00:02:29.56 bitrate=N/A speed=17.1x    frame= 3761 fps=405 q=-0.0 size=N/A time=00:02:36.86 bitrate=N/A speed=16.9x    frame= 3950 fps=403 q=-0.0 size=N/A time=00:02:44.74 bitrate=N/A speed=16.8x    frame= 4187 fps=405 q=-0.0 size=N/A time=00:02:54.63 bitrate=N/A speed=16.9x    frame= 4450 fps=411 q=-0.0 size=N/A time=00:03:05.60 bitrate=N/A speed=17.1x    frame= 4659 fps=411 q=-0.0 size=N/A time=00:03:14.31 bitrate=N/A speed=17.1x    frame= 4881 fps=411 q=-0.0 size=N/A time=00:03:23.57 bitrate=N/A speed=17.1x    frame= 5143 fps=415 q=-0.0 size=N/A time=00:03:34.50 bitrate=N/A speed=17.3x    frame= 5374 fps=417 q=-0.0 size=N/A time=00:03:44.14 bitrate=N/A speed=17.4x    frame= 5635 fps=420 q=-0.0 size=N/A time=00:03:55.02 bitrate=N/A speed=17.5x    frame= 5913 fps=425 q=-0.0 size=N/A time=00:04:06.62 bitrate=N/A speed=17.7x    frame= 6118 fps=423 q=-0.0 size=N/A time=00:04:15.17 bitrate=N/A speed=17.7x    frame= 6361 fps=425 q=-0.0 size=N/A time=00:04:25.30 bitrate=N/A speed=17.7x    frame= 6615 fps=427 q=-0.0 size=N/A time=00:04:35.90 bitrate=N/A speed=17.8x    frame= 6856 fps=429 q=-0.0 size=N/A time=00:04:45.95 bitrate=N/A speed=17.9x    frame= 7139 fps=432 q=-0.0 size=N/A time=00:04:57.75 bitrate=N/A speed=  18x    frame= 7405 fps=435 q=-0.0 size=N/A time=00:05:08.85 bitrate=N/A speed=18.1x    frame= 7682 fps=438 q=-0.0 size=N/A time=00:05:20.40 bitrate=N/A speed=18.3x    frame= 7946 fps=440 q=-0.0 size=N/A time=00:05:31.41 bitrate=N/A speed=18.4x    frame= 8219 fps=442 q=-0.0 size=N/A time=00:05:42.80 bitrate=N/A speed=18.5x    frame= 8481 fps=444 q=-0.0 size=N/A time=00:05:53.72 bitrate=N/A speed=18.5x    frame= 8753 fps=447 q=-0.0 size=N/A time=00:06:05.07 bitrate=N/A speed=18.6x    frame= 9026 fps=449 q=-0.0 size=N/A time=00:06:16.45 bitrate=N/A speed=18.7x    frame= 9301 fps=451 q=-0.0 size=N/A time=00:06:27.92 bitrate=N/A speed=18.8x    frame= 9568 fps=452 q=-0.0 size=N/A time=00:06:39.06 bitrate=N/A speed=18.9x    frame= 9817 fps=453 q=-0.0 size=N/A time=00:06:49.45 bitrate=N/A speed=18.9x    frame=10097 fps=455 q=-0.0 size=N/A time=00:07:01.12 bitrate=N/A speed=  19x    frame=10357 fps=456 q=-0.0 size=N/A time=00:07:11.97 bitrate=N/A speed=  19x    frame=10635 fps=458 q=-0.0 size=N/A time=00:07:23.56 bitrate=N/A speed=19.1x    frame=10891 fps=459 q=-0.0 size=N/A time=00:07:34.24 bitrate=N/A speed=19.1x    frame=11156 fps=460 q=-0.0 size=N/A time=00:07:45.29 bitrate=N/A speed=19.2x    frame=11431 fps=462 q=-0.0 size=N/A time=00:07:56.76 bitrate=N/A speed=19.3x    frame=11683 fps=462 q=-0.0 size=N/A time=00:08:07.27 bitrate=N/A speed=19.3x    frame=11919 fps=462 q=-0.0 size=N/A time=00:08:17.12 bitrate=N/A speed=19.3x    frame=12127 fps=461 q=-0.0 size=N/A time=00:08:25.79 bitrate=N/A speed=19.2x    frame=12380 fps=461 q=-0.0 size=N/A time=00:08:36.34 bitrate=N/A speed=19.2x    frame=12653 fps=463 q=-0.0 size=N/A time=00:08:47.73 bitrate=N/A speed=19.3x    frame=12845 fps=461 q=-0.0 size=N/A time=00:08:55.74 bitrate=N/A speed=19.2x    frame=13089 fps=461 q=-0.0 size=N/A time=00:09:05.92 bitrate=N/A speed=19.2x    frame=13376 fps=463 q=-0.0 size=N/A time=00:09:17.89 bitrate=N/A speed=19.3x    frame=13651 fps=464 q=-0.0 size=N/A time=00:09:29.36 bitrate=N/A speed=19.4x    frame=13882 fps=464 q=-0.0 size=N/A time=00:09:38.99 bitrate=N/A speed=19.4x    frame=14151 fps=465 q=-0.0 size=N/A time=00:09:50.21 bitrate=N/A speed=19.4x    frame=14436 fps=466 q=-0.0 size=N/A time=00:10:02.10 bitrate=N/A speed=19.5x    frame=14694 fps=467 q=-0.0 size=N/A time=00:10:12.86 bitrate=N/A speed=19.5x    frame=14968 fps=468 q=-0.0 size=N/A time=00:10:24.29 bitrate=N/A speed=19.5x    frame=15227 fps=469 q=-0.0 size=N/A time=00:10:35.09 bitrate=N/A speed=19.5x    frame=15500 fps=470 q=-0.0 size=N/A time=00:10:46.47 bitrate=N/A speed=19.6x    frame=15764 fps=470 q=-0.0 size=N/A time=00:10:57.49 bitrate=N/A speed=19.6x    frame=16045 fps=471 q=-0.0 size=N/A time=00:11:09.21 bitrate=N/A speed=19.7x    frame=16333 fps=473 q=-0.0 size=N/A time=00:11:21.22 bitrate=N/A speed=19.7x    frame=16607 fps=473 q=-0.0 size=N/A time=00:11:32.65 bitrate=N/A speed=19.7x    frame=16874 fps=474 q=-0.0 size=N/A time=00:11:43.78 bitrate=N/A speed=19.8x    frame=17151 fps=475 q=-0.0 size=N/A time=00:11:55.33 bitrate=N/A speed=19.8x    frame=17430 fps=476 q=-0.0 size=N/A time=00:12:06.97 bitrate=N/A speed=19.8x    frame=17706 fps=477 q=-0.0 size=N/A time=00:12:18.48 bitrate=N/A speed=19.9x    frame=17986 fps=477 q=-0.0 size=N/A time=00:12:30.16 bitrate=N/A speed=19.9x    frame=18217 fps=477 q=-0.0 size=N/A time=00:12:39.80 bitrate=N/A speed=19.9x    frame=18479 fps=478 q=-0.0 size=N/A time=00:12:50.72 bitrate=N/A speed=19.9x    frame=18756 fps=478 q=-0.0 size=N/A time=00:13:02.28 bitrate=N/A speed=  20x    frame=18959 fps=477 q=-0.0 size=N/A time=00:13:10.74 bitrate=N/A speed=19.9x    frame=19184 fps=477 q=-0.0 size=N/A time=00:13:20.13 bitrate=N/A speed=19.9x    frame=19405 fps=476 q=-0.0 size=N/A time=00:13:29.35 bitrate=N/A speed=19.9x    frame=19629 fps=476 q=-0.0 size=N/A time=00:13:38.69 bitrate=N/A speed=19.8x    frame=19858 fps=475 q=-0.0 size=N/A time=00:13:48.24 bitrate=N/A speed=19.8x    frame=20046 fps=474 q=-0.0 size=N/A time=00:13:56.08 bitrate=N/A speed=19.8x    frame=20239 fps=473 q=-0.0 size=N/A time=00:14:04.13 bitrate=N/A speed=19.7x    frame=20459 fps=472 q=-0.0 size=N/A time=00:14:13.31 bitrate=N/A speed=19.7x    frame=20736 fps=473 q=-0.0 size=N/A time=00:14:24.86 bitrate=N/A speed=19.7x    frame=20995 fps=473 q=-0.0 size=N/A time=00:14:35.66 bitrate=N/A speed=19.7x    frame=21231 fps=473 q=-0.0 size=N/A time=00:14:45.50 bitrate=N/A speed=19.7x    frame=21456 fps=473 q=-0.0 size=N/A time=00:14:54.89 bitrate=N/A speed=19.7x    frame=21721 fps=473 q=-0.0 size=N/A time=00:15:05.94 bitrate=N/A speed=19.7x    frame=21970 fps=473 q=-0.0 size=N/A time=00:15:16.33 bitrate=N/A speed=19.7x    frame=22195 fps=473 q=-0.0 size=N/A time=00:15:25.71 bitrate=N/A speed=19.7x    frame=22397 fps=472 q=-0.0 size=N/A time=00:15:34.14 bitrate=N/A speed=19.7x    frame=22638 fps=472 q=-0.0 size=N/A time=00:15:44.19 bitrate=N/A speed=19.7x    frame=22884 fps=472 q=-0.0 size=N/A time=00:15:54.45 bitrate=N/A speed=19.7x    frame=23122 fps=472 q=-0.0 size=N/A time=00:16:04.38 bitrate=N/A speed=19.7x    frame=23309 fps=471 q=-0.0 size=N/A time=00:16:12.17 bitrate=N/A speed=19.6x    frame=23547 fps=471 q=-0.0 size=N/A time=00:16:22.10 bitrate=N/A speed=19.6x    frame=23775 fps=470 q=-0.0 size=N/A time=00:16:31.61 bitrate=N/A speed=19.6x    frame=24028 fps=470 q=-0.0 size=N/A time=00:16:42.16 bitrate=N/A speed=19.6x    frame=24270 fps=471 q=-0.0 size=N/A time=00:16:52.26 bitrate=N/A speed=19.6x    frame=24551 fps=471 q=-0.0 size=N/A time=00:17:03.98 bitrate=N/A speed=19.7x    frame=24779 fps=471 q=-0.0 size=N/A time=00:17:13.49 bitrate=N/A speed=19.6x    frame=25018 fps=471 q=-0.0 size=N/A time=00:17:23.45 bitrate=N/A speed=19.6x    frame=25263 fps=471 q=-0.0 size=N/A time=00:17:33.67 bitrate=N/A speed=19.6x    frame=25510 fps=471 q=-0.0 size=N/A time=00:17:43.97 bitrate=N/A speed=19.6x    frame=25757 fps=471 q=-0.0 size=N/A time=00:17:54.28 bitrate=N/A speed=19.6x    frame=25990 fps=471 q=-0.0 size=N/A time=00:18:03.99 bitrate=N/A speed=19.6x    frame=26220 fps=471 q=-0.0 size=N/A time=00:18:13.59 bitrate=N/A speed=19.6x    frame=26475 fps=471 q=-0.0 size=N/A time=00:18:24.22 bitrate=N/A speed=19.6x    frame=26732 fps=471 q=-0.0 size=N/A time=00:18:34.94 bitrate=N/A speed=19.7x    frame=27005 fps=472 q=-0.0 size=N/A time=00:18:46.33 bitrate=N/A speed=19.7x    frame=27222 fps=471 q=-0.0 size=N/A time=00:18:55.38 bitrate=N/A speed=19.7x    frame=27495 fps=472 q=-0.0 size=N/A time=00:19:06.77 bitrate=N/A speed=19.7x    frame=27762 fps=472 q=-0.0 size=N/A time=00:19:17.90 bitrate=N/A speed=19.7x    frame=27998 fps=472 q=-0.0 size=N/A time=00:19:27.74 bitrate=N/A speed=19.7x    frame=28263 fps=472 q=-0.0 size=N/A time=00:19:38.80 bitrate=N/A speed=19.7x    frame=28530 fps=473 q=-0.0 size=N/A time=00:19:49.93 bitrate=N/A speed=19.7x    frame=28782 fps=473 q=-0.0 size=N/A time=00:20:00.44 bitrate=N/A speed=19.7x    frame=29059 fps=473 q=-0.0 size=N/A time=00:20:12.00 bitrate=N/A speed=19.7x    frame=29305 fps=473 q=-0.0 size=N/A time=00:20:22.26 bitrate=N/A speed=19.7x    frame=29568 fps=474 q=-0.0 size=N/A time=00:20:33.23 bitrate=N/A speed=19.8x    frame=29833 fps=474 q=-0.0 size=N/A time=00:20:44.28 bitrate=N/A speed=19.8x    frame=30104 fps=474 q=-0.0 size=N/A time=00:20:55.58 bitrate=N/A speed=19.8x    frame=30369 fps=475 q=-0.0 size=N/A time=00:21:06.64 bitrate=N/A speed=19.8x    frame=30621 fps=475 q=-0.0 size=N/A time=00:21:17.15 bitrate=N/A speed=19.8x    frame=30867 fps=475 q=-0.0 size=N/A time=00:21:27.41 bitrate=N/A speed=19.8x    frame=31124 fps=475 q=-0.0 size=N/A time=00:21:38.13 bitrate=N/A speed=19.8x    frame=31351 fps=475 q=-0.0 size=N/A time=00:21:47.59 bitrate=N/A speed=19.8x    frame=31595 fps=475 q=-0.0 size=N/A time=00:21:57.77 bitrate=N/A speed=19.8x    frame=31852 fps=475 q=-0.0 size=N/A time=00:22:08.49 bitrate=N/A speed=19.8x    frame=32125 fps=475 q=-0.0 size=N/A time=00:22:19.88 bitrate=N/A speed=19.8x    frame=32392 fps=476 q=-0.0 size=N/A time=00:22:31.01 bitrate=N/A speed=19.8x    frame=32672 fps=476 q=-0.0 size=N/A time=00:22:42.69 bitrate=N/A speed=19.9x    frame=32949 fps=477 q=-0.0 size=N/A time=00:22:54.24 bitrate=N/A speed=19.9x    frame=33188 fps=477 q=-0.0 size=N/A time=00:23:04.21 bitrate=N/A speed=19.9x    frame=33398 fps=476 q=-0.0 size=N/A time=00:23:12.97 bitrate=N/A speed=19.9x    frame=33545 fps=475 q=-0.0 size=N/A time=00:23:19.10 bitrate=N/A speed=19.8x    frame=33712 fps=474 q=-0.0 size=N/A time=00:23:26.07 bitrate=N/A speed=19.8x    frame=33873 fps=472 q=-0.0 size=N/A time=00:23:32.78 bitrate=N/A speed=19.7x    frame=34048 fps=472 q=-0.0 size=N/A time=00:23:40.08 bitrate=N/A speed=19.7x    frame=34218 fps=470 q=-0.0 size=N/A time=00:23:47.17 bitrate=N/A speed=19.6x    frame=34382 fps=469 q=-0.0 size=N/A time=00:23:54.01 bitrate=N/A speed=19.6x    frame=34544 fps=468 q=-0.0 size=N/A time=00:24:00.77 bitrate=N/A speed=19.5x    frame=34679 fps=467 q=-0.0 size=N/A time=00:24:06.40 bitrate=N/A speed=19.5x    frame=34874 fps=466 q=-0.0 size=N/A time=00:24:14.53 bitrate=N/A speed=19.4x    frame=35106 fps=466 q=-0.0 size=N/A time=00:24:24.21 bitrate=N/A speed=19.4x    frame=35332 fps=466 q=-0.0 size=N/A time=00:24:33.63 bitrate=N/A speed=19.4x    [Parsed_ssim_10 @ 00000220db7a3e80] SSIM Y:0.994733 (22.784201) U:0.994492 (22.589857) V:0.994798 (22.838336) All:0.994703 (22.760108)
[out#0/null @ 00000220cfbb0f40] video:15212KiB audio:276888KiB subtitle:0KiB other streams:0KiB global headers:0KiB muxing overhead: unknown
frame=35403 fps=466 q=-0.0 Lsize=N/A time=00:24:36.60 bitrate=N/A speed=19.4x    
